<svg width="820" height="762" viewBox="0 0 820 762" fill="none" xmlns="http://www.w3.org/2000/svg">
<ellipse cx="320.662" cy="410.97" rx="320.662" ry="350.97" fill="#279FF9"/>
<ellipse cx="320.662" cy="410.97" rx="253.341" ry="277.285" fill="#149AFF"/>
<path d="M514.654 410.97C514.654 528.235 427.801 623.297 320.662 623.297C213.523 623.297 126.67 528.235 126.67 410.97C126.67 293.705 213.523 198.643 320.662 198.643C427.801 198.643 514.654 293.705 514.654 410.97Z" fill="#0092FF"/>
<path d="M820 516.791H127V517.18H820V516.791Z" fill="#E6E6E6"/>
<path d="M235.413 534.141H198.587V534.53H235.413V534.141Z" fill="#E6E6E6"/>
<path d="M248.733 526.368H216.993V526.757H248.733V526.368Z" fill="#E6E6E6"/>
<path d="M578.018 527.518H492.849V527.907H578.018V527.518Z" fill="#E6E6E6"/>
<path d="M606.431 527.518H586.001V527.907H606.431V527.518Z" fill="#E6E6E6"/>
<path d="M722.592 530.177H655.149V530.565H722.592V530.177Z" fill="#E6E6E6"/>
<path d="M394.734 536.38H274.665V536.769H394.734V536.38Z" fill="#E6E6E6"/>
<path d="M744.587 530.177H734.761V530.565H744.587V530.177Z" fill="#E6E6E6"/>
<path d="M339.652 249.421C343.511 230.646 333.069 211.917 316.331 207.589C299.593 203.262 282.896 214.974 279.038 233.749C275.18 252.524 285.621 271.253 302.359 275.581C319.098 279.908 335.794 268.196 339.652 249.421Z" fill="#F0F0F0"/>
<path d="M521.428 234.368C517.561 225.04 520.638 218.277 530.118 218.277C536.05 218.277 543.424 220.92 550.603 225.196C551.421 222.755 553.694 221.293 557.367 221.293C563.84 221.293 572.752 225.818 579.737 232.176C581.893 230.558 584.434 229.708 587.028 229.735C593.223 229.455 600.707 232.052 607.222 236.281C607.604 235.874 608.054 235.557 608.547 235.349C609.04 235.141 609.564 235.045 610.091 235.068C612.155 235.146 614.183 235.707 616.042 236.717C617.902 237.726 619.552 239.161 620.888 240.929C621.04 241.131 621.165 241.349 621.303 241.551H516.619C513.306 238.239 516.965 234.539 521.428 234.368Z" fill="#F5F5F5"/>
<path d="M317.492 306.552L403.257 284.522V516.791H317.492V306.552Z" fill="#FAFAFA"/>
<path d="M447.762 284.522H403.257V516.791H447.762V284.522Z" fill="#EBEBEB"/>
<path d="M433.223 516.791H506.224L506.224 228.973H433.223V516.791Z" fill="#FAFAFA"/>
<path d="M544.103 228.973H506.224V516.791H544.103V228.973Z" fill="#EBEBEB"/>
<path d="M443.05 228.973H506.224V207.581H443.05V228.973Z" fill="#FAFAFA"/>
<path d="M443.05 228.973H506.224V224.169H443.05V228.973Z" fill="#EBEBEB"/>
<path d="M534.29 207.581H506.224V228.973H534.29V207.581Z" fill="#EBEBEB"/>
<path d="M452.862 207.581H506.209V186.189H452.862V207.581Z" fill="#FAFAFA"/>
<path d="M452.862 207.581H506.209V202.777H452.862V207.581Z" fill="#EBEBEB"/>
<path d="M524.463 186.204H506.224V207.596H524.463V186.204Z" fill="#EBEBEB"/>
<path d="M490.437 156.323H486.889V186.204H490.437V156.323Z" fill="#EBEBEB"/>
<path d="M532.003 516.791H585.309V266.379H532.003V516.791Z" fill="#FAFAFA"/>
<path d="M612.987 266.378H585.323V516.791H612.987V266.378Z" fill="#EBEBEB"/>
<path d="M599.155 317.17L639.571 356.037V516.791H599.155V317.17Z" fill="#FAFAFA"/>
<path d="M660.554 356.037H639.57V516.791H660.554V356.037Z" fill="#EBEBEB"/>
<path d="M660.555 356.037H639.571L599.155 317.17H620.125L660.555 356.037Z" fill="#EBEBEB"/>
<path d="M736.701 516.791C737.296 513.056 738.711 509.547 740.819 506.58C742.927 503.613 745.66 501.282 748.773 499.798C746.041 504.909 744.8 510.85 745.225 516.791H736.701Z" fill="#EBEBEB"/>
<path d="M385.212 516.791C384.617 513.056 383.202 509.547 381.094 506.58C378.986 503.613 376.252 501.282 373.14 499.798C375.872 504.909 377.113 510.85 376.688 516.791H385.212Z" fill="#EBEBEB"/>
<path d="M208.594 516.791C208.594 516.791 207.915 496.891 200.5 491.108C203.535 499.239 202.883 516.791 202.883 516.791H208.594Z" fill="#EBEBEB"/>
<path d="M205.808 516.791C205.808 516.791 206.501 505.364 213.916 502.053C210.867 506.717 211.532 516.791 211.532 516.791H205.808Z" fill="#EBEBEB"/>
<path d="M391.559 516.791C391.559 516.791 390.811 497.948 377.367 491.108C383.382 500.778 383.035 516.791 383.035 516.791H391.559Z" fill="#EBEBEB"/>
<path d="M256.84 389.945L266.625 467.368L267.596 475.11H273.874L272.89 467.368L263.105 389.945H256.84Z" fill="#E0E0E0"/>
<path d="M525.71 389.945L535.496 467.368L536.466 475.11H542.744L541.76 467.368L531.975 389.945H525.71Z" fill="#E0E0E0"/>
<path d="M297.021 467.368L298.005 475.11L303.285 516.853H309.564L304.283 475.11L303.313 467.368H297.021Z" fill="#E6E6E6"/>
<path d="M565.905 467.368L566.889 475.11L572.156 516.853H578.42L573.154 475.11L572.183 467.368H565.905Z" fill="#E6E6E6"/>
<path d="M534.221 467.368L533.236 475.11L527.956 516.853H521.677L526.958 475.11L527.928 467.368H534.221Z" fill="#E6E6E6"/>
<path d="M265.336 467.368L264.352 475.11L259.086 516.853H252.821L258.088 475.11L259.072 467.368H265.336Z" fill="#E6E6E6"/>
<path d="M247.818 400.719H535.177L529.841 379.156H242.481L247.818 400.719Z" fill="#F5F5F5"/>
<path d="M254.373 400.719H541.746L536.41 379.156H249.037L254.373 400.719Z" fill="#E6E6E6"/>
<path d="M251.823 427.599H539.182L533.846 406.052H246.473L251.823 427.599Z" fill="#F5F5F5"/>
<path d="M258.379 427.599H545.738L540.402 406.052H253.043L258.379 427.599Z" fill="#E6E6E6"/>
<path d="M255.815 454.526H543.188L537.852 432.978H250.479L255.815 454.526Z" fill="#F5F5F5"/>
<path d="M262.384 454.526H549.744L544.408 432.978H257.048L262.384 454.526Z" fill="#E6E6E6"/>
<path d="M575.897 467.368H289.799V475.11H575.897V467.368Z" fill="#E6E6E6"/>
<path d="M289.799 467.368H250.479V475.11H289.799V467.368Z" fill="#F5F5F5"/>
<path d="M228.871 151.55C223.507 138.553 227.776 129.302 240.887 129.302C249.106 129.302 259.294 132.94 269.231 138.864C270.354 135.49 273.514 133.469 278.587 133.469C287.54 133.469 299.862 139.688 309.536 148.565C312.514 146.324 316.027 145.148 319.612 145.191C328.178 144.787 338.545 148.394 347.554 154.24C348.625 153.113 350.051 152.509 351.518 152.56C356.452 152.327 363.133 155.965 366.445 160.66C366.653 160.956 366.833 161.236 367.013 161.531H222.218C217.644 156.914 222.703 151.783 228.871 151.55Z" fill="#F5F5F5"/>
<path d="M609.203 178.353C609.568 178.329 609.934 178.329 610.298 178.353C609.966 174.108 611.92 171.388 616.119 171.388C619.851 171.671 623.464 172.979 626.639 175.197C625.558 166.957 629.037 161.593 636.882 161.593C643.216 161.593 651.241 165.076 659.169 170.766C659.862 167.532 662.19 165.589 666.099 165.589C673.029 165.589 682.731 171.59 690.631 180.047C692.707 177.93 695.421 176.775 698.226 176.814C704.782 176.425 712.931 179.923 720.153 185.489C720.5 184.978 720.953 184.57 721.472 184.299C721.991 184.028 722.561 183.903 723.132 183.934C726.722 183.732 731.656 186.826 734.539 190.961H603.438C600.347 184.556 602.8 179.068 609.203 178.353Z" fill="#F5F5F5"/>
<path d="M388.649 84.3258C389.009 84.3021 389.37 84.3021 389.73 84.3258C389.398 80.0659 391.366 77.3608 395.551 77.3608C399.288 77.6414 402.906 78.9495 406.085 81.1698C405.004 72.9144 408.469 67.5508 416.314 67.5508C422.662 67.5508 430.673 71.0488 438.601 76.7389C439.294 73.5052 441.622 71.5618 445.531 71.5618C452.461 71.5618 462.163 77.5474 470.063 86.0204C472.143 83.9097 474.853 82.7504 477.658 82.7711C484.214 82.398 492.364 85.8804 499.585 91.4462C499.933 90.9367 500.386 90.5292 500.904 90.2585C501.423 89.9878 501.993 89.8619 502.564 89.8915C506.154 89.6739 511.102 92.7677 513.971 96.9187H382.87C379.793 90.5289 382.246 85.0409 388.649 84.3258Z" fill="#F5F5F5"/>
<path d="M715.731 489.895L691.102 462.268H671.919L693.208 486.148H687.359V516.791H709.882V489.895H715.731Z" fill="#EBEBEB"/>
<path d="M696.549 489.895L671.92 462.268L647.291 489.895H656.48V516.791H687.36V489.895H696.549Z" fill="#FAFAFA"/>
<path d="M473.501 587C621.917 587 742.232 579.12 742.232 569.401C742.232 559.681 621.917 551.802 473.501 551.802C325.084 551.802 204.769 559.681 204.769 569.401C204.769 579.12 325.084 587 473.501 587Z" fill="#F5F5F5"/>
<path d="M683.008 89.7515L646.071 48.3193H617.298L649.231 84.1391H640.444V130.08H674.221V89.7515H683.008Z" fill="#3E4EA9"/>
<path opacity="0.4" d="M683.008 89.7515L646.071 48.3193H617.298L649.231 84.1391H640.444V130.08H674.221V89.7515H683.008Z" fill="white"/>
<path d="M654.235 89.7515L617.298 48.3193L580.361 89.7515H594.152V130.08H640.444V89.7515H654.235Z" fill="#3E4EA9"/>
<path opacity="0.7" d="M654.235 89.7515L617.298 48.3193L580.361 89.7515H594.152V130.08H640.444V89.7515H654.235Z" fill="white"/>
<path d="M706.792 255.138L669.855 213.691H641.082L673.015 249.51H664.228V295.451H698.005V255.138H706.792Z" fill="#3E4EA9"/>
<path opacity="0.4" d="M706.792 255.138L669.855 213.691H641.082L673.015 249.51H664.228V295.451H698.005V255.138H706.792Z" fill="white"/>
<path d="M678.018 255.138L641.081 213.691L604.145 255.138H617.921V295.451H664.228V255.138H678.018Z" fill="#3E4EA9"/>
<path opacity="0.7" d="M678.018 255.138L641.081 213.691L604.145 255.138H617.921V295.451H664.228V255.138H678.018Z" fill="white"/>
<path d="M540.555 298.218L503.604 256.786H474.845L506.778 292.59H497.991V338.547H531.768V298.218H540.555Z" fill="#3E4EA9"/>
<path opacity="0.4" d="M540.555 298.218L503.604 256.786H474.845L506.778 292.59H497.991V338.547H531.768V298.218H540.555Z" fill="white"/>
<path d="M511.781 298.218L474.845 256.786L437.908 298.218H451.685V338.531H497.991V298.218H511.781Z" fill="#3E4EA9"/>
<path opacity="0.7" d="M511.781 298.218L474.845 256.786L437.908 298.218H451.685V338.531H497.991V298.218H511.781Z" fill="white"/>
<path d="M538.351 158.997H518.476L515.635 155.825L492.558 107.63L538.351 158.997Z" fill="#2F54C6"/>
<path d="M518.407 205.808H560.278V148.845H518.407V205.808Z" fill="#3E4EA9"/>
<path opacity="0.3" d="M518.407 205.808H560.278V148.845H518.407V205.808Z" fill="black"/>
<path d="M535.51 155.826H571.185L525.378 104.443H489.716L535.51 155.826Z" fill="#3E4EA9"/>
<path opacity="0.3" d="M535.51 155.826H571.185L525.378 104.443H489.716L535.51 155.826Z" fill="black"/>
<path d="M518.406 141.414V205.808H461.012V141.414L489.716 110.149L490.007 110.475L492.558 113.243L518.406 141.414Z" fill="#3E4EA9"/>
<path opacity="0.3" d="M492.558 107.63V129.924L466.625 158.997H461.012V143.015L490.007 110.475L492.558 107.63Z" fill="black"/>
<path d="M535.51 155.826H515.634L489.716 126.737V104.443L535.51 155.826Z" fill="#3E4EA9"/>
<path d="M443.909 155.826H463.784L489.717 126.737V104.443L443.909 155.826Z" fill="#3E4EA9"/>
<path d="M437.464 221.371C425.641 232.13 413.444 242.251 401.178 252.2C388.912 262.15 376.48 271.821 364.006 281.413C351.532 291.005 338.85 300.24 326.113 309.397C319.778 314.061 313.347 318.476 306.958 323.016C303.806 325.452 300.324 327.3 296.646 328.489C294.652 329.092 292.609 329.467 290.548 329.608C288.231 329.823 285.9 329.681 283.618 329.188C281.831 328.78 280.134 327.981 278.623 326.836C277.112 325.691 275.817 324.223 274.813 322.516C273.809 320.809 273.114 318.897 272.77 316.888C272.426 314.88 272.438 312.815 272.807 310.812C272.807 310.579 272.904 310.283 272.959 310.035C273.581 307.517 274.514 305.11 275.731 302.883C276.755 300.9 277.958 299.04 279.321 297.333C281.889 294.148 284.898 291.449 288.233 289.342C294.678 284.895 301.067 280.371 307.54 276.018C320.444 267.172 333.472 258.575 346.57 250.086C359.668 241.598 372.904 233.373 386.251 225.351C399.598 217.329 413.056 209.509 426.861 202.295C429.088 201.212 431.588 201.062 433.906 201.872C436.223 202.682 438.205 204.398 439.489 206.709C440.774 209.02 441.276 211.771 440.904 214.462C440.532 217.153 439.311 219.605 437.464 221.371Z" fill="#3E4EA9"/>
<path d="M437.464 221.371C425.641 232.13 413.444 242.251 401.178 252.2C388.912 262.15 376.48 271.821 364.006 281.413C351.532 291.005 338.85 300.24 326.113 309.397C319.778 314.061 313.347 318.476 306.958 323.016C303.806 325.452 300.324 327.3 296.646 328.489C294.652 329.092 292.609 329.467 290.548 329.608C288.231 329.823 285.9 329.681 283.618 329.188C281.831 328.78 280.134 327.981 278.623 326.836C277.112 325.691 275.817 324.223 274.813 322.516C273.809 320.809 273.114 318.897 272.77 316.888C272.426 314.88 272.438 312.815 272.807 310.812C272.807 310.579 272.904 310.283 272.959 310.035C273.581 307.517 274.514 305.11 275.731 302.883C276.755 300.9 277.958 299.04 279.321 297.333C281.889 294.148 284.898 291.449 288.233 289.342C294.678 284.895 301.067 280.371 307.54 276.018C320.444 267.172 333.472 258.575 346.57 250.086C359.668 241.598 372.904 233.373 386.251 225.351C399.598 217.329 413.056 209.509 426.861 202.295C429.088 201.212 431.588 201.062 433.906 201.872C436.223 202.682 438.205 204.398 439.489 206.709C440.774 209.02 441.276 211.771 440.904 214.462C440.532 217.153 439.311 219.605 437.464 221.371Z" fill="#3E4EA9"/>
<path opacity="0.5" d="M437.464 221.371C425.641 232.13 413.444 242.251 401.178 252.2C388.912 262.15 376.48 271.821 364.006 281.413C351.532 291.005 338.85 300.24 326.113 309.397C319.778 314.061 313.347 318.476 306.958 323.016C303.806 325.452 300.324 327.3 296.646 328.489C294.652 329.092 292.609 329.467 290.548 329.608C288.231 329.823 285.9 329.681 283.618 329.188C281.831 328.78 280.134 327.981 278.623 326.836C277.112 325.691 275.817 324.223 274.813 322.516C273.809 320.809 273.114 318.897 272.77 316.888C272.426 314.88 272.438 312.815 272.807 310.812C272.807 310.579 272.904 310.283 272.959 310.035C273.581 307.517 274.514 305.11 275.731 302.883C276.755 300.9 277.958 299.04 279.321 297.333C281.889 294.148 284.898 291.449 288.233 289.342C294.678 284.895 301.067 280.371 307.54 276.018C320.444 267.172 333.472 258.575 346.57 250.086C359.668 241.598 372.904 233.373 386.251 225.351C399.598 217.329 413.056 209.509 426.861 202.295C429.088 201.212 431.588 201.062 433.906 201.872C436.223 202.682 438.205 204.398 439.489 206.709C440.774 209.02 441.276 211.771 440.904 214.462C440.532 217.153 439.311 219.605 437.464 221.371Z" fill="white"/>
<path d="M386.32 556.016L397.63 553.077L392.336 523.492L381.026 526.43L386.32 556.016Z" fill="#EBB376"/>
<path d="M310.063 202.482C308.497 208.7 306.986 215.246 305.545 221.651C304.103 228.056 302.773 234.555 301.664 241.022C301.054 244.24 300.527 247.536 300.07 250.568C299.613 253.6 299.349 256.787 299.183 259.974C299.037 263.143 299.037 266.319 299.183 269.488C299.183 271.043 299.363 272.598 299.502 274.246C299.64 275.894 299.89 277.464 300.084 278.816L294.54 281.164C293.812 279.493 293.187 277.769 292.669 276.002C292.126 274.305 291.664 272.577 291.283 270.825C290.524 267.33 290.005 263.775 289.73 260.191C289.474 256.571 289.427 252.936 289.592 249.309C289.814 245.64 290.202 242.266 290.631 238.846C291.504 232.021 292.627 225.258 293.958 218.635C295.288 212.012 296.73 205.342 298.601 198.642L310.063 202.482Z" fill="#EBB376"/>
<path d="M293.75 204.627L305.406 215.043L312.405 221.262C312.405 221.262 313.14 219.07 314.027 215.93C315.718 209.866 317.921 200.258 316.397 195.843C313.999 188.847 309.467 182.535 303.729 183.934C298.864 185.162 293.75 204.627 293.75 204.627Z" fill="#263238"/>
<path d="M309.855 556.109H321.456L320.555 525.948H308.94L309.855 556.109Z" fill="#EBB376"/>
<path d="M392.336 523.507L395.177 539.35L383.756 541.682L381.012 526.446L392.336 523.507Z" fill="#DA9D62"/>
<path d="M308.94 525.948H320.555L321.012 541.495H309.397L308.94 525.948Z" fill="#DA9D62"/>
<path d="M346.778 262.943C346.778 262.943 340.042 352.321 333.057 402.693C327.416 443.379 322.953 538.494 322.953 538.494H307.18C307.18 538.494 299.64 446.644 302.509 406.346C309.758 304.531 296.965 286.496 312.142 262.896L346.778 262.943Z" fill="#3E4EA9"/>
<path opacity="0.6" d="M346.778 262.943C346.778 262.943 340.042 352.321 333.057 402.693C327.416 443.379 322.953 538.494 322.953 538.494H307.18C307.18 538.494 299.64 446.644 302.509 406.346C309.758 304.531 296.965 286.496 312.142 262.896L346.778 262.943Z" fill="black"/>
<path d="M295.302 280.153L288.455 285.377L289.425 289.839C289.425 289.839 303.687 281.537 299.876 278.21L295.302 280.153Z" fill="#EBB376"/>
<path d="M326.348 556.871C325.315 556.841 324.288 556.685 323.285 556.404C323.234 556.387 323.188 556.355 323.151 556.311C323.115 556.267 323.089 556.214 323.077 556.155C323.069 556.096 323.076 556.034 323.098 555.979C323.12 555.924 323.156 555.877 323.202 555.844C323.604 555.549 327.11 552.999 328.469 553.683C328.623 553.759 328.756 553.88 328.853 554.033C328.951 554.186 329.01 554.366 329.023 554.554C329.077 554.847 329.064 555.151 328.984 555.437C328.904 555.723 328.76 555.981 328.566 556.186C327.924 556.706 327.137 556.948 326.348 556.871ZM324.061 555.953C326.085 556.42 327.609 556.326 328.219 555.736C328.347 555.594 328.44 555.418 328.491 555.226C328.542 555.033 328.548 554.828 328.51 554.632C328.505 554.549 328.481 554.47 328.439 554.402C328.398 554.333 328.341 554.279 328.275 554.243C327.54 553.886 325.503 555.036 324.061 555.953Z" fill="#3E4EA9"/>
<path d="M323.355 556.404C323.31 556.421 323.261 556.421 323.216 556.404C323.176 556.376 323.142 556.338 323.118 556.292C323.093 556.245 323.08 556.193 323.078 556.14C323.078 555.969 323.078 552.222 324.353 550.963C324.507 550.8 324.691 550.68 324.893 550.61C325.095 550.539 325.308 550.522 325.517 550.559C325.736 550.561 325.947 550.647 326.116 550.802C326.285 550.958 326.401 551.174 326.446 551.414C326.709 552.968 324.588 555.705 323.493 556.404C323.448 556.419 323.4 556.419 323.355 556.404ZM325.323 551.134C325.099 551.14 324.883 551.234 324.713 551.398C323.986 552.609 323.613 554.043 323.646 555.503C324.741 554.508 326.071 552.393 325.905 551.507C325.905 551.367 325.808 551.181 325.448 551.134H325.323Z" fill="#3E4EA9"/>
<path d="M398.656 551.118C398.604 551.115 398.554 551.096 398.511 551.064C398.468 551.031 398.433 550.987 398.411 550.935C398.388 550.882 398.378 550.824 398.382 550.766C398.386 550.708 398.404 550.653 398.434 550.605C398.808 550.107 402.037 545.848 403.687 545.848H403.798C403.948 545.859 404.093 545.916 404.217 546.012C404.341 546.107 404.441 546.239 404.505 546.392C404.616 546.632 404.675 546.898 404.675 547.169C404.675 547.44 404.616 547.707 404.505 547.946C403.784 549.657 400.527 550.621 398.642 551.056L398.656 551.118ZM403.673 546.454C402.772 546.454 400.776 548.568 399.404 550.294C401.94 549.626 403.659 548.739 404.061 547.729C404.143 547.57 404.185 547.391 404.185 547.208C404.185 547.025 404.143 546.846 404.061 546.687C404.037 546.624 403.999 546.57 403.95 546.529C403.902 546.488 403.844 546.462 403.784 546.454H403.673Z" fill="#3E4EA9"/>
<path d="M398.656 551.118C398.61 551.11 398.566 551.087 398.531 551.051C398.497 551.015 398.473 550.968 398.462 550.916C398.462 550.776 397.464 547.418 398.351 545.537C398.473 545.262 398.644 545.017 398.854 544.819C399.064 544.621 399.308 544.474 399.571 544.387C400.306 544.138 400.666 544.387 400.818 544.744C401.525 546.019 399.959 549.781 398.92 550.963C398.892 551.013 398.853 551.054 398.807 551.081C398.761 551.109 398.709 551.121 398.656 551.118ZM400.042 544.9C399.937 544.881 399.829 544.881 399.723 544.9C399.53 544.962 399.349 545.069 399.194 545.213C399.039 545.358 398.913 545.537 398.823 545.739C398.42 547.155 398.42 548.676 398.823 550.092C399.807 548.538 400.763 545.755 400.347 544.993C400.301 544.93 400.238 544.887 400.168 544.87C400.097 544.853 400.024 544.864 399.959 544.9H400.042Z" fill="#3E4EA9"/>
<path d="M324.366 152.483C325.752 160.256 328.524 175.803 323.743 181.011C323.743 181.011 325.628 188.785 338.434 188.785C352.502 188.785 345.156 181.011 345.156 181.011C337.478 178.959 337.672 172.569 339.016 166.553L324.366 152.483Z" fill="#EBB376"/>
<path d="M352.336 135.91C352.222 135.913 352.11 135.874 352.017 135.801C351.958 135.754 351.907 135.693 351.869 135.623C351.83 135.554 351.805 135.476 351.793 135.395C351.782 135.314 351.784 135.232 351.801 135.152C351.818 135.072 351.849 134.997 351.892 134.931C352.392 134.132 353.053 133.476 353.821 133.017C354.59 132.558 355.443 132.308 356.313 132.288C356.444 132.311 356.562 132.386 356.648 132.498C356.733 132.611 356.781 132.754 356.781 132.902C356.781 133.05 356.733 133.193 356.648 133.306C356.562 133.418 356.444 133.493 356.313 133.516C355.621 133.537 354.944 133.743 354.336 134.116C353.729 134.489 353.21 135.019 352.821 135.661C352.766 135.746 352.692 135.814 352.607 135.858C352.522 135.901 352.429 135.919 352.336 135.91Z" fill="#263238"/>
<path d="M355.413 143.326C356.16 145.762 357.205 148.069 358.517 150.183C358.024 150.541 357.468 150.775 356.887 150.869C356.305 150.963 355.712 150.915 355.149 150.727L355.413 143.326Z" fill="#DE5753"/>
<path d="M354.637 141.491C354.637 142.547 355.066 143.418 355.676 143.433C356.285 143.449 356.812 142.641 356.853 141.584C356.895 140.527 356.424 139.673 355.814 139.642C355.205 139.611 354.678 140.45 354.637 141.491Z" fill="#263238"/>
<path d="M355.538 139.687L357.809 139.066C357.809 139.066 356.59 140.977 355.538 139.687Z" fill="#263238"/>
<path d="M322.426 554.601H309.384C309.158 554.591 308.937 554.677 308.765 554.841C308.593 555.005 308.483 555.236 308.455 555.487L306.972 567.054C306.94 567.347 306.965 567.644 307.044 567.925C307.123 568.207 307.255 568.466 307.431 568.685C307.607 568.905 307.823 569.08 308.064 569.198C308.305 569.316 308.566 569.375 308.829 569.37C313.375 569.293 315.565 568.982 321.303 568.982C324.837 568.982 329.98 569.401 334.858 569.401C339.737 569.401 339.986 563.991 337.963 563.509C328.871 561.302 327.429 558.285 324.366 555.394C323.821 554.885 323.135 554.605 322.426 554.601Z" fill="#263238"/>
<path d="M397.409 549.735L385.364 555.347C385.155 555.438 384.984 555.612 384.882 555.835C384.779 556.059 384.754 556.316 384.81 556.56L387.388 567.893C387.461 568.176 387.587 568.438 387.757 568.662C387.927 568.886 388.137 569.068 388.374 569.194C388.611 569.32 388.869 569.389 389.132 569.395C389.394 569.401 389.655 569.345 389.896 569.23C394.054 567.194 395.995 565.981 401.289 563.509C404.546 561.954 411.435 559.234 415.939 557.135C420.444 555.036 418.822 549.937 416.785 550.356C407.637 552.253 403.285 550.994 399.474 549.641C398.797 549.399 398.066 549.432 397.409 549.735Z" fill="#263238"/>
<path d="M371.186 197.134C373.445 203.104 375.884 209.214 378.351 215.153C379.599 218.138 380.897 221.071 382.246 223.952C383.632 226.844 385.018 229.673 386.404 232.378C387.139 233.715 387.873 235.052 388.635 236.281L389.772 238.053C390.005 238.423 390.27 238.767 390.562 239.079C392.074 240.552 393.96 241.455 395.954 241.66C400.68 242.422 406.612 241.349 411.92 239.748L414.387 245.733C412.985 246.678 411.531 247.524 410.035 248.267C408.563 249.036 407.049 249.701 405.503 250.257C402.243 251.502 398.828 252.158 395.385 252.201C393.465 252.22 391.553 251.937 389.703 251.361C387.649 250.727 385.718 249.673 384.006 248.252C383.13 247.504 382.318 246.666 381.581 245.749C380.957 244.956 380.5 244.287 379.945 243.541C378.906 242.08 377.977 240.603 377.048 239.126C373.595 233.296 370.484 227.22 367.735 220.936C364.963 214.717 362.468 208.499 360.167 202.062L371.186 197.134Z" fill="#EBB376"/>
<path d="M410.728 246.464L423.396 244.225L420.028 236.172C420.028 236.172 410.215 238.084 408.33 243.059L410.728 246.464Z" fill="#EBB376"/>
<path d="M423.382 237.944L421.996 234.508L420.028 236.171L423.382 244.225V237.944Z" fill="#EBB376"/>
<path d="M323.313 136.501C323.563 149.421 323.424 154.893 328.996 161.765C337.312 172.104 351.477 168.932 354.664 156.184C357.533 144.71 356.633 125.51 345.572 119.882C343.137 118.629 340.457 118.096 337.786 118.332C335.115 118.568 332.543 119.566 330.312 121.232C328.082 122.897 326.269 125.174 325.044 127.846C323.819 130.519 323.223 133.498 323.313 136.501Z" fill="#EBB376"/>
<path d="M314.027 113.165C325.863 103.542 339.086 108.999 346.321 115.653C353.888 122.618 352.682 136.003 348.053 141.538C348.533 142.357 348.851 143.281 348.985 144.25C349.119 145.218 349.066 146.207 348.829 147.151C349.413 151.292 348.601 155.53 346.551 159.037C344.501 162.543 341.361 165.068 337.741 166.118L337.09 166.304C322.301 170.253 305.212 159.028 302.634 142.238C301.068 131.992 303.562 121.654 314.027 113.165Z" fill="#263238"/>
<path d="M345.406 142.486C345.595 144.922 346.525 147.211 348.039 148.969C350.091 151.348 352.197 149.98 352.571 147.166C352.89 144.632 352.211 140.341 349.716 138.988C347.222 137.636 345.226 139.61 345.406 142.486Z" fill="#EBB376"/>
<path opacity="0.3" d="M330.742 304.733C329.425 331.443 335.163 351.607 337.783 363.407C339.64 345.963 341.345 327.758 342.772 311.698C337.88 293.508 331.698 284.631 330.742 304.733Z" fill="black"/>
<path d="M325.129 538.836H304.962L303.895 530.907L325.239 530.099L325.129 538.836Z" fill="#3E4EA9"/>
<path opacity="0.3" d="M305.406 215.044L312.405 221.262C312.405 221.262 313.14 219.07 314.027 215.93L309.869 192.843L305.406 215.044Z" fill="black"/>
<path d="M320.624 115.326C324.241 110.833 336.535 103.977 347.083 109.357C350.091 110.894 352.641 113.372 354.426 116.493C356.21 119.615 357.155 123.247 357.145 126.955L347.637 134.107L320.624 115.326Z" fill="#263238"/>
<path d="M310.922 127.126C316.147 122.322 322.01 104.91 310.922 110.973C299.834 117.036 296.466 140.419 310.922 127.126Z" fill="#3E4EA9"/>
<path d="M312.1 115.964C314.359 108.563 299.46 93.8405 289.411 107.833C279.363 121.825 305.6 137.263 312.1 115.964Z" fill="#263238"/>
<path d="M335.413 126.286C326.751 122.151 322.44 106.48 337.312 106.931C352.184 107.382 351.754 134.106 335.413 126.286Z" fill="#3E4EA9"/>
<path d="M332.613 118.171C327.36 110.818 333.168 91.9128 348.233 97.9605C363.299 104.008 344.671 134.977 332.613 118.171Z" fill="#263238"/>
<path d="M359.238 262.943C359.238 262.943 372.322 363.22 376.924 402.678C381.705 443.644 395.676 535.494 395.676 535.494L380.153 538.153C380.153 538.153 355.621 450.546 348.788 410.669C341.331 367.216 326.612 262.974 326.612 262.974L359.238 262.943Z" fill="#3E4EA9"/>
<path opacity="0.6" d="M359.238 262.943C359.238 262.943 372.322 363.22 376.924 402.678C381.705 443.644 395.676 535.494 395.676 535.494L380.153 538.153C380.153 538.153 355.621 450.546 348.788 410.669C341.331 367.216 326.612 262.974 326.612 262.974L359.238 262.943Z" fill="black"/>
<path d="M364.782 184.354C370.548 185.909 377.658 203.694 377.658 203.694L363.923 223.439C363.923 223.439 349.73 200.911 351.629 194.04C353.597 186.873 357.783 182.442 364.782 184.354Z" fill="#263238"/>
<path d="M345.988 183.545C347.887 183.856 346.126 178.99 345.336 178.477C343.521 177.264 320.388 174.824 320.652 177.56C320.792 179.193 321.416 180.726 322.426 181.913C323.465 182.69 329.356 180.545 345.988 183.545Z" fill="#3E4EA9"/>
<path opacity="0.6" d="M345.988 183.545C347.887 183.856 346.126 178.99 345.336 178.477C343.521 177.264 320.388 174.824 320.652 177.56C320.792 179.193 321.416 180.726 322.426 181.913C323.465 182.69 329.356 180.545 345.988 183.545Z" fill="white"/>
<path d="M364.782 184.354C364.782 184.354 370.326 186.531 359.238 262.943H312.114C312.904 241.426 312.932 228.149 303.798 183.965C310.396 182.438 317.085 181.451 323.812 181.012C330.94 180.436 338.097 180.436 345.225 181.012C354.304 181.913 364.782 184.354 364.782 184.354Z" fill="#263238"/>
<path d="M311.338 259.849L309.218 264.513C309.051 264.886 309.439 265.26 309.98 265.26H359.432C359.848 265.26 360.209 265.026 360.236 264.715L360.652 260.051C360.652 259.725 360.319 259.445 359.848 259.445H312.142C311.988 259.421 311.831 259.446 311.688 259.518C311.546 259.589 311.425 259.704 311.338 259.849Z" fill="#3E4EA9"/>
<path opacity="0.6" d="M311.338 259.849L309.218 264.513C309.051 264.886 309.439 265.26 309.98 265.26H359.432C359.848 265.26 360.209 265.026 360.236 264.715L360.652 260.051C360.652 259.725 360.319 259.445 359.848 259.445H312.142C311.988 259.421 311.831 259.446 311.688 259.518C311.546 259.589 311.425 259.704 311.338 259.849Z" fill="white"/>
<path d="M317.797 265.866H316.508C316.259 265.866 316.064 265.711 316.078 265.54L316.688 259.321C316.688 259.134 316.924 258.994 317.173 258.994H318.462C318.712 258.994 318.906 259.134 318.892 259.321L318.282 265.54C318.268 265.679 318.046 265.866 317.797 265.866Z" fill="#3E4EA9"/>
<path d="M348.76 265.866H347.485C347.222 265.866 347.028 265.711 347.055 265.54L347.651 259.321C347.651 259.134 347.887 258.994 348.15 258.994H349.425C349.675 258.994 349.869 259.134 349.855 259.321L349.259 265.54C349.259 265.679 349.037 265.866 348.76 265.866Z" fill="#3E4EA9"/>
<path opacity="0.6" d="M317.797 265.866H316.508C316.259 265.866 316.064 265.711 316.078 265.54L316.688 259.321C316.688 259.134 316.924 258.994 317.173 258.994H318.462C318.712 258.994 318.906 259.134 318.892 259.321L318.282 265.54C318.268 265.679 318.046 265.866 317.797 265.866Z" fill="black"/>
<path opacity="0.6" d="M348.76 265.866H347.485C347.222 265.866 347.028 265.711 347.055 265.54L347.651 259.321C347.651 259.134 347.887 258.994 348.15 258.994H349.425C349.675 258.994 349.869 259.134 349.855 259.321L349.259 265.54C349.259 265.679 349.037 265.866 348.76 265.866Z" fill="black"/>
<path d="M397.963 535.494L378.088 539.287L375.829 530.876L397.104 526.788L397.963 535.494Z" fill="#3E4EA9"/>
<path d="M596.036 101.474C585.465 82.4855 570.11 67.4395 551.916 58.2387C533.721 49.038 513.502 46.0956 493.817 49.7838C474.131 53.4719 455.862 63.6249 441.321 78.959C426.779 94.293 416.618 114.119 412.121 135.931C407.625 157.743 408.995 180.56 416.059 201.498C423.124 222.437 435.564 240.555 451.808 253.562C468.052 266.57 487.369 273.882 507.318 274.575C527.267 275.268 546.951 269.31 563.881 257.455C575.124 249.582 584.874 239.303 592.575 227.203C600.275 215.103 605.776 201.42 608.762 186.936C611.748 172.451 612.161 157.449 609.977 142.785C607.794 128.121 603.057 114.084 596.036 101.474ZM442.897 208.747C434.558 193.762 430.367 176.34 430.855 158.684C431.343 141.027 436.488 123.93 445.638 109.553C454.789 95.1765 467.535 84.1663 482.264 77.9148C496.993 71.6633 513.044 70.4514 528.387 74.4322C543.73 78.4131 557.676 87.4079 568.462 100.279C579.248 113.151 586.389 129.321 588.982 146.744C591.575 164.168 589.504 182.063 583.03 198.166C576.556 214.269 565.971 227.858 552.613 237.213C543.742 243.425 533.867 247.615 523.552 249.545C513.237 251.476 502.684 251.108 492.496 248.463C482.308 245.818 472.684 240.948 464.173 234.131C455.663 227.314 448.433 218.683 442.897 208.731V208.747Z" fill="#3E4EA9"/>
<path d="M596.036 101.474C585.465 82.4855 570.11 67.4395 551.916 58.2387C533.721 49.038 513.502 46.0956 493.817 49.7838C474.131 53.4719 455.862 63.6249 441.321 78.959C426.779 94.293 416.618 114.119 412.121 135.931C407.625 157.743 408.995 180.56 416.059 201.498C423.124 222.437 435.564 240.555 451.808 253.562C468.052 266.57 487.369 273.882 507.318 274.575C527.267 275.268 546.951 269.31 563.881 257.455C575.124 249.582 584.874 239.303 592.575 227.203C600.275 215.103 605.776 201.42 608.762 186.936C611.748 172.451 612.161 157.449 609.977 142.785C607.794 128.121 603.057 114.084 596.036 101.474ZM442.897 208.747C434.558 193.762 430.367 176.34 430.855 158.684C431.343 141.027 436.488 123.93 445.638 109.553C454.789 95.1765 467.535 84.1663 482.264 77.9148C496.993 71.6633 513.044 70.4514 528.387 74.4322C543.73 78.4131 557.676 87.4079 568.462 100.279C579.248 113.151 586.389 129.321 588.982 146.744C591.575 164.168 589.504 182.063 583.03 198.166C576.556 214.269 565.971 227.858 552.613 237.213C543.742 243.425 533.867 247.615 523.552 249.545C513.237 251.476 502.684 251.108 492.496 248.463C482.308 245.818 472.684 240.948 464.173 234.131C455.663 227.314 448.433 218.683 442.897 208.731V208.747Z" fill="#3E4EA9"/>
<path opacity="0.5" d="M596.036 101.474C585.465 82.4855 570.11 67.4395 551.916 58.2387C533.721 49.038 513.502 46.0956 493.817 49.7838C474.131 53.4719 455.862 63.6249 441.321 78.959C426.779 94.293 416.618 114.119 412.121 135.931C407.625 157.743 408.995 180.56 416.059 201.498C423.124 222.437 435.564 240.555 451.808 253.562C468.052 266.57 487.369 273.882 507.318 274.575C527.267 275.268 546.951 269.31 563.881 257.455C575.124 249.582 584.874 239.303 592.575 227.203C600.275 215.103 605.776 201.42 608.762 186.936C611.748 172.451 612.161 157.449 609.977 142.785C607.794 128.121 603.057 114.084 596.036 101.474ZM442.897 208.747C434.558 193.762 430.367 176.34 430.855 158.684C431.343 141.027 436.488 123.93 445.638 109.553C454.789 95.1765 467.535 84.1663 482.264 77.9148C496.993 71.6633 513.044 70.4514 528.387 74.4322C543.73 78.4131 557.676 87.4079 568.462 100.279C579.248 113.151 586.389 129.321 588.982 146.744C591.575 164.168 589.504 182.063 583.03 198.166C576.556 214.269 565.971 227.858 552.613 237.213C543.742 243.425 533.867 247.615 523.552 249.545C513.237 251.476 502.684 251.108 492.496 248.463C482.308 245.818 472.684 240.948 464.173 234.131C455.663 227.314 448.433 218.683 442.897 208.731V208.747Z" fill="white"/>
<path opacity="0.2" d="M584.657 109.45C593.818 125.916 598.421 145.06 597.884 164.461C597.346 183.862 591.693 202.648 581.638 218.445C571.582 234.241 557.577 246.339 541.393 253.208C525.209 260.077 507.572 261.409 490.713 257.036C473.854 252.662 458.529 242.78 446.677 228.638C434.825 214.496 426.977 196.729 424.126 177.584C421.274 158.44 423.548 138.777 430.659 121.081C437.77 103.386 449.398 88.4524 464.075 78.1698C473.823 71.3401 484.675 66.7315 496.011 64.6073C507.347 62.4831 518.945 62.8849 530.143 65.7897C541.34 68.6945 551.918 74.0453 561.272 81.5367C570.626 89.028 578.572 98.513 584.657 109.45Z" fill="#FAFAFA"/>
<path opacity="0.1" d="M597.089 147.54L461.261 242.655C450.185 234.224 440.981 223.055 434.359 210.007L582.661 106.138C590.229 118.52 595.164 132.683 597.089 147.54Z" fill="#E6E6E6"/>
</svg>
